# xmcd
#
# Track frame offsets:
#	150
#	24583
#	53456
#	78337
#	104715
#	133455
#	162764
#	187294
#	210949
#	235869
# Disc length: 3404 seconds
# Revision: 1
# Processed by: cddbd v1.5.1PL2 Copyright (c) Steve Scherf et al.
#
# Submitted via: libkcddb 0.10
#
DISCID=850d4a0a
DTITLE=Unknown - Mua Thu Cho Em
DYEAR=1900
DGENRE=
TTITLE0=Tinh Yeu Nhu Bong May
TTITLE1=Goi Nguoi Yeu Dau
TTITLE2=Goi Ten Bon Mua
TTITLE3=Hoa Soan Ben Them Cu
TTITLE4=Mua Chieu Ky Niem
TTITLE5=Mua Thu Cho Em
TTITLE6=Nhin Nhung Mua Thu Di
TTITLE7=Tinh Nghe Sy
TTITLE8=Tinh Nho
TTITLE9=Yellow Bird
EXTD=
EXTT0=
EXTT1=
EXTT2=
EXTT3=
EXTT4=
EXTT5=
EXTT6=
EXTT7=
EXTT8=
EXTT9=
PLAYORDER=
